<svg width="48" height="47" viewBox="0 0 48 47" fill="none" xmlns="http://www.w3.org/2000/svg">
<path d="M41.625 31.3333V15.6667C41.6243 14.9798 41.443 14.3053 41.0993 13.7106C40.7555 13.116 40.2615 12.6222 39.6667 12.2788L25.9583 4.44542C25.3629 4.10166 24.6875 3.92068 24 3.92068C23.3125 3.92068 22.6371 4.10166 22.0417 4.44542L8.33333 12.2788C7.73851 12.6222 7.24446 13.116 6.90074 13.7106C6.55701 14.3053 6.3757 14.9798 6.375 15.6667V31.3333C6.3757 32.0202 6.55701 32.6948 6.90074 33.2894C7.24446 33.884 7.73851 34.3778 8.33333 34.7213L22.0417 42.5546C22.6371 42.8983 23.3125 43.0793 24 43.0793C24.6875 43.0793 25.3629 42.8983 25.9583 42.5546L39.6667 34.7213C40.2615 34.3778 40.7555 33.884 41.0993 33.2894C41.443 32.6948 41.6243 32.0202 41.625 31.3333Z" stroke="white" stroke-width="3" stroke-linecap="round" stroke-linejoin="round"/>
<path d="M6.94287 13.7083L24 23.5M24 23.5L41.057 13.7083M24 23.5V43.0833" stroke="white" stroke-width="3" stroke-linecap="round" stroke-linejoin="round"/>
</svg>
