<svg width="48" height="47" viewBox="0 0 48 47" fill="none" xmlns="http://www.w3.org/2000/svg">
<g clip-path="url(#clip0_22_112)">
<path d="M37.7083 5.875C38.7471 5.875 39.7433 6.28765 40.4778 7.02216C41.2124 7.75668 41.625 8.7529 41.625 9.79167V31.3333C41.625 32.3721 41.2124 33.3683 40.4778 34.1028C39.7433 34.8374 38.7471 35.25 37.7083 35.25H29.875V37.2083H31.8333C32.3527 37.2083 32.8508 37.4147 33.2181 37.7819C33.5853 38.1492 33.7917 38.6473 33.7917 39.1667C33.7917 39.6861 33.5853 40.1842 33.2181 40.5514C32.8508 40.9187 32.3527 41.125 31.8333 41.125H16.1667C15.6473 41.125 15.1492 40.9187 14.7819 40.5514C14.4147 40.1842 14.2083 39.6861 14.2083 39.1667C14.2083 38.6473 14.4147 38.1492 14.7819 37.7819C15.1492 37.4147 15.6473 37.2083 16.1667 37.2083H18.125V35.25H10.2917C9.2529 35.25 8.25668 34.8374 7.52216 34.1028C6.78765 33.3683 6.375 32.3721 6.375 31.3333V9.79167C6.375 8.7529 6.78765 7.75668 7.52216 7.02216C8.25668 6.28765 9.2529 5.875 10.2917 5.875H37.7083ZM25.9583 35.25H22.0417V37.2083H25.9583V35.25ZM37.7083 9.79167H10.2917V31.3333H37.7083V9.79167Z" fill="white"/>
</g>
<defs>
<clipPath id="clip0_22_112">
<rect width="47" height="47" fill="white" transform="translate(0.5)"/>
</clipPath>
</defs>
</svg>
