<svg width="48" height="47" viewBox="0 0 48 47" fill="none" xmlns="http://www.w3.org/2000/svg">
<path d="M8.33342 11.75C9.37218 11.75 10.3684 11.3374 11.1029 10.6028C11.8374 9.86832 12.2501 8.8721 12.2501 7.83334C12.2501 6.79457 11.8374 5.79835 11.1029 5.06384C10.3684 4.32932 9.37218 3.91667 8.33342 3.91667C7.29465 3.91667 6.29843 4.32932 5.56391 5.06384C4.8294 5.79835 4.41675 6.79457 4.41675 7.83334C4.41675 8.8721 4.8294 9.86832 5.56391 10.6028C6.29843 11.3374 7.29465 11.75 8.33342 11.75ZM10.2917 41.125C11.8499 41.125 13.3442 40.506 14.446 39.4043C15.5478 38.3025 16.1667 36.8082 16.1667 35.25C16.1667 33.6919 15.5478 32.1975 14.446 31.0958C13.3442 29.994 11.8499 29.375 10.2917 29.375C8.7336 29.375 7.23927 29.994 6.1375 31.0958C5.03572 32.1975 4.41675 33.6919 4.41675 35.25C4.41675 36.8082 5.03572 38.3025 6.1375 39.4043C7.23927 40.506 8.7336 41.125 10.2917 41.125ZM37.7084 43.0833C39.2666 43.0833 40.7609 42.4644 41.8627 41.3626C42.9644 40.2608 43.5834 38.7665 43.5834 37.2083C43.5834 35.6502 42.9644 34.1559 41.8627 33.0541C40.7609 31.9523 39.2666 31.3333 37.7084 31.3333C36.1503 31.3333 34.6559 31.9523 33.5542 33.0541C32.4524 34.1559 31.8334 35.6502 31.8334 37.2083C31.8334 38.7665 32.4524 40.2608 33.5542 41.3626C34.6559 42.4644 36.1503 43.0833 37.7084 43.0833ZM22.0418 27.4167C24.1193 27.4167 26.1117 26.5914 27.5808 25.1223C29.0498 23.6533 29.8751 21.6609 29.8751 19.5833C29.8751 17.5058 29.0498 15.5134 27.5808 14.0443C26.1117 12.5753 24.1193 11.75 22.0418 11.75C19.9642 11.75 17.9718 12.5753 16.5027 14.0443C15.0337 15.5134 14.2084 17.5058 14.2084 19.5833C14.2084 21.6609 15.0337 23.6533 16.5027 25.1223C17.9718 26.5914 19.9642 27.4167 22.0418 27.4167ZM33.7918 11.75C34.8305 11.75 35.8267 11.3374 36.5613 10.6028C37.2958 9.86832 37.7084 8.8721 37.7084 7.83334C37.7084 6.79457 37.2958 5.79835 36.5613 5.06384C35.8267 4.32932 34.8305 3.91667 33.7918 3.91667C32.753 3.91667 31.7568 4.32932 31.0223 5.06384C30.2877 5.79835 29.8751 6.79457 29.8751 7.83334C29.8751 8.8721 30.2877 9.86832 31.0223 10.6028C31.7568 11.3374 32.753 11.75 33.7918 11.75Z" stroke="white" stroke-width="3" stroke-linecap="round" stroke-linejoin="round"/>
<path d="M11.271 10.7708L15.1877 14.6875M29.8752 11.75L27.9168 13.7083M33.7918 32.8021L27.9168 25.4583M14.2085 30.3542L18.1252 26.4375" stroke="white" stroke-width="3" stroke-linecap="round" stroke-linejoin="round"/>
</svg>
