<svg fill="none" xmlns="http://www.w3.org/2000/svg" viewBox="0 0 463 401">
    <path fill-rule="evenodd" clip-rule="evenodd" d="M405.125 100.25h-115.75L347.25 0l57.875 100.25Z" fill="#FCC669"/>
    <path fill-rule="evenodd" clip-rule="evenodd" d="m347.25 200.5-57.875-100.25h115.75L347.25 200.5Z" fill="#2AA250"/>
    <path d="M463 200.5H347.25l57.875-100.25L463 200.5Z" fill="#34CB64"/>
    <path fill-rule="evenodd" clip-rule="evenodd" d="M405.125 300.75h-115.75L347.25 401l57.875-100.25Z" fill="#F73B9C"/>
    <path d="M289.375 300.75 231.5 401h115.75l-57.875-100.25Z" fill="#F96CB5"/>
    <path fill-rule="evenodd" clip-rule="evenodd" d="m347.25 200.5-57.875 100.25h115.75L347.25 200.5Z" fill="#74CDF1"/>
    <path d="M463 200.5H347.25l57.875 100.25L463 200.5Z" fill="#46BCEC"/>
    <path d="M173.625 300.75 115.75 401H231.5l-.274-.475-57.601-99.775Z" fill="#333"/>
    <path d="m231.5 0 57.875 100.25L347.25 0H231.5Z" fill="#FBB337"/>
    <path d="m0 200.5 57.875 100.25V200.5H0Zm57.875-100.25L0 200.5h57.875V100.25Z" fill="#333"/>
    <path fill-rule="evenodd" clip-rule="evenodd" d="M57.875 0h57.875l57.875 100.25L115.75 200.5l57.875 100.25 57.601 99.775H57.875V0Z" fill="#333"/>
    <path d="M231.5 0H115.75l57.875 100.25L231.5 0Z" fill="#F33"/>
    <path d="M289.375 100.25 231.5 0l-57.875 100.25h115.75Z" fill="#F66"/>
    <path d="m231.5 401 57.875-100.25h-115.75l57.601 99.775.274.475Z" fill="#333"/>
</svg>
