<svg width="50" height="50" viewBox="0 0 50 50" fill="none" xmlns="http://www.w3.org/2000/svg">
<path d="M16.2501 4.1665H33.7501C40.4167 4.1665 45.8334 9.58317 45.8334 16.2498V33.7498C45.8334 36.9545 44.5604 40.028 42.2943 42.294C40.0282 44.5601 36.9548 45.8332 33.7501 45.8332H16.2501C9.58341 45.8332 4.16675 40.4165 4.16675 33.7498V16.2498C4.16675 13.0451 5.43981 9.97169 7.70587 7.70563C9.97194 5.43957 13.0454 4.1665 16.2501 4.1665ZM15.8334 8.33317C13.8443 8.33317 11.9366 9.12335 10.5301 10.5299C9.12359 11.9364 8.33341 13.844 8.33341 15.8332V34.1665C8.33341 38.3123 11.6876 41.6665 15.8334 41.6665H34.1667C36.1559 41.6665 38.0635 40.8763 39.47 39.4698C40.8766 38.0633 41.6667 36.1556 41.6667 34.1665V15.8332C41.6667 11.6873 38.3126 8.33317 34.1667 8.33317H15.8334ZM35.9376 11.4582C36.6282 11.4582 37.2906 11.7325 37.779 12.2209C38.2674 12.7093 38.5417 13.3717 38.5417 14.0623C38.5417 14.753 38.2674 15.4154 37.779 15.9038C37.2906 16.3921 36.6282 16.6665 35.9376 16.6665C35.2469 16.6665 34.5845 16.3921 34.0962 15.9038C33.6078 15.4154 33.3334 14.753 33.3334 14.0623C33.3334 13.3717 33.6078 12.7093 34.0962 12.2209C34.5845 11.7325 35.2469 11.4582 35.9376 11.4582ZM25.0001 14.5832C27.7628 14.5832 30.4123 15.6806 32.3658 17.6341C34.3193 19.5876 35.4167 22.2372 35.4167 24.9998C35.4167 27.7625 34.3193 30.412 32.3658 32.3655C30.4123 34.319 27.7628 35.4165 25.0001 35.4165C22.2374 35.4165 19.5879 34.319 17.6344 32.3655C15.6809 30.412 14.5834 27.7625 14.5834 24.9998C14.5834 22.2372 15.6809 19.5876 17.6344 17.6341C19.5879 15.6806 22.2374 14.5832 25.0001 14.5832ZM25.0001 18.7498C23.3425 18.7498 21.7528 19.4083 20.5807 20.5804C19.4086 21.7525 18.7501 23.3422 18.7501 24.9998C18.7501 26.6574 19.4086 28.2472 20.5807 29.4193C21.7528 30.5914 23.3425 31.2498 25.0001 31.2498C26.6577 31.2498 28.2474 30.5914 29.4195 29.4193C30.5916 28.2472 31.2501 26.6574 31.2501 24.9998C31.2501 23.3422 30.5916 21.7525 29.4195 20.5804C28.2474 19.4083 26.6577 18.7498 25.0001 18.7498Z" fill="currentColor"/>
</svg>
