<svg width="50" height="50" viewBox="0 0 50 50" fill="none" xmlns="http://www.w3.org/2000/svg">
<path d="M39.5833 6.25C40.6884 6.25 41.7482 6.68899 42.5296 7.47039C43.311 8.25179 43.75 9.3116 43.75 10.4167V39.5833C43.75 40.6884 43.311 41.7482 42.5296 42.5296C41.7482 43.311 40.6884 43.75 39.5833 43.75H10.4167C9.3116 43.75 8.25179 43.311 7.47039 42.5296C6.68899 41.7482 6.25 40.6884 6.25 39.5833V10.4167C6.25 9.3116 6.68899 8.25179 7.47039 7.47039C8.25179 6.68899 9.3116 6.25 10.4167 6.25H39.5833ZM38.5417 38.5417V27.5C38.5417 25.6987 37.8261 23.9713 36.5524 22.6976C35.2787 21.4239 33.5513 20.7083 31.75 20.7083C29.9792 20.7083 27.9167 21.7917 26.9167 23.4167V21.1042H21.1042V38.5417H26.9167V28.2708C26.9167 26.6667 28.2083 25.3542 29.8125 25.3542C30.586 25.3542 31.3279 25.6615 31.8749 26.2084C32.4219 26.7554 32.7292 27.4973 32.7292 28.2708V38.5417H38.5417ZM14.3333 17.8333C15.2616 17.8333 16.1518 17.4646 16.8082 16.8082C17.4646 16.1518 17.8333 15.2616 17.8333 14.3333C17.8333 12.3958 16.2708 10.8125 14.3333 10.8125C13.3996 10.8125 12.504 11.1834 11.8437 11.8437C11.1834 12.504 10.8125 13.3996 10.8125 14.3333C10.8125 16.2708 12.3958 17.8333 14.3333 17.8333ZM17.2292 38.5417V21.1042H11.4583V38.5417H17.2292Z" fill="currentColor"/>
</svg>
