<svg width="48" height="47" viewBox="0 0 48 47" fill="none" xmlns="http://www.w3.org/2000/svg">
<path d="M12.25 16.1562C12.25 15.5776 12.364 15.0046 12.5854 14.4701C12.8068 13.9355 13.1314 13.4497 13.5406 13.0406C13.9497 12.6314 14.4355 12.3068 14.9701 12.0854C15.5046 11.864 16.0776 11.75 16.6562 11.75C17.2349 11.75 17.8079 11.864 18.3424 12.0854C18.877 12.3068 19.3628 12.6314 19.7719 13.0406C20.1811 13.4497 20.5057 13.9355 20.7271 14.4701C20.9485 15.0046 21.0625 15.5776 21.0625 16.1562C21.0625 17.3249 20.5983 18.4456 19.7719 19.2719C18.9456 20.0983 17.8249 20.5625 16.6562 20.5625C15.4876 20.5625 14.3669 20.0983 13.5406 19.2719C12.7142 18.4456 12.25 17.3249 12.25 16.1562ZM16.6562 8.8125C14.7086 8.8125 12.8407 9.58621 11.4634 10.9634C10.0862 12.3407 9.3125 14.2086 9.3125 16.1562C9.3125 18.1039 10.0862 19.9718 11.4634 21.3491C12.8407 22.7263 14.7086 23.5 16.6562 23.5C18.6039 23.5 20.4718 22.7263 21.8491 21.3491C23.2263 19.9718 24 18.1039 24 16.1562C24 14.2086 23.2263 12.3407 21.8491 10.9634C20.4718 9.58621 18.6039 8.8125 16.6562 8.8125ZM31.3438 17.625C31.3438 16.8459 31.6532 16.0988 32.2041 15.5479C32.755 14.997 33.5022 14.6875 34.2812 14.6875C35.0603 14.6875 35.8075 14.997 36.3584 15.5479C36.9093 16.0988 37.2188 16.8459 37.2188 17.625C37.2188 18.4041 36.9093 19.1512 36.3584 19.7021C35.8075 20.253 35.0603 20.5625 34.2812 20.5625C33.5022 20.5625 32.755 20.253 32.2041 19.7021C31.6532 19.1512 31.3438 18.4041 31.3438 17.625ZM34.2812 11.75C32.7231 11.75 31.2288 12.369 30.127 13.4707C29.0252 14.5725 28.4062 16.0669 28.4062 17.625C28.4062 19.1831 29.0252 20.6775 30.127 21.7793C31.2288 22.881 32.7231 23.5 34.2812 23.5C35.8394 23.5 37.3337 22.881 38.4355 21.7793C39.5373 20.6775 40.1562 19.1831 40.1562 17.625C40.1562 16.0669 39.5373 14.5725 38.4355 13.4707C37.3337 12.369 35.8394 11.75 34.2812 11.75ZM4.90625 30.8438C4.90625 29.6751 5.37048 28.5544 6.19681 27.7281C7.02314 26.9017 8.14389 26.4375 9.3125 26.4375H24C25.1686 26.4375 26.2894 26.9017 27.1157 27.7281C27.942 28.5544 28.4062 29.6751 28.4062 30.8438V31.1728C28.4031 31.3073 28.3933 31.4416 28.3769 31.5752C28.2095 32.9993 27.6795 34.3566 26.8376 35.5173C25.2308 37.7351 22.1758 39.6562 16.6562 39.6562C11.1396 39.6562 8.08463 37.7351 6.47194 35.5173C5.63111 34.3563 5.10215 32.999 4.93562 31.5752C4.921 31.4414 4.9112 31.3072 4.90625 31.1728V30.8438ZM7.84375 31.1081V31.1287L7.8555 31.2726C7.96926 32.182 8.31077 33.0479 8.84838 33.7901C9.806 35.1061 11.8916 36.7188 16.6562 36.7188C21.4209 36.7188 23.5065 35.1061 24.4641 33.7901C25.0017 33.0479 25.3432 32.182 25.457 31.2726C25.4623 31.2238 25.4662 31.1748 25.4688 31.1257V30.8438C25.4688 30.4542 25.314 30.0806 25.0386 29.8052C24.7631 29.5297 24.3895 29.375 24 29.375H9.3125C8.92296 29.375 8.54938 29.5297 8.27394 29.8052C7.99849 30.0806 7.84375 30.4542 7.84375 30.8438V31.1081ZM34.2812 36.7188C32.554 36.7188 31.1381 36.4544 29.9925 36.0196C30.4634 35.157 30.8199 34.2367 31.0529 33.2819C31.8402 33.5786 32.8859 33.7812 34.2812 33.7812C37.5683 33.7812 38.9166 32.6591 39.51 31.8249C39.8568 31.3383 40.0769 30.7729 40.1504 30.1799L40.1562 30.0976C40.1532 29.9049 40.0744 29.7211 39.937 29.5859C39.7997 29.4507 39.6146 29.375 39.4219 29.375H31.1969C30.98 28.3098 30.5284 27.3063 29.875 26.4375H39.4219C41.4487 26.4375 43.0938 28.0825 43.0938 30.1094V30.1593C43.0902 30.2663 43.0824 30.3731 43.0702 30.4795C42.9458 31.5805 42.5435 32.6317 41.9011 33.5345C40.6615 35.2706 38.3379 36.7188 34.2812 36.7188Z" fill="currentColor"/>
</svg>
