<svg width="48" height="47" viewBox="0 0 48 47" fill="none" xmlns="http://www.w3.org/2000/svg">
<path d="M45.2969 10.2813V22.0313C45.2969 22.6156 45.0648 23.1759 44.6516 23.5891C44.2385 24.0023 43.6781 24.2344 43.0938 24.2344C42.5095 24.2344 41.9491 24.0023 41.5359 23.5891C41.1228 23.1759 40.8907 22.6156 40.8907 22.0313V15.6055L27.0275 29.4705C26.8228 29.6759 26.5796 29.8388 26.3118 29.95C26.044 30.0612 25.7569 30.1185 25.467 30.1185C25.177 30.1185 24.8899 30.0612 24.6221 29.95C24.3543 29.8388 24.1111 29.6759 23.9064 29.4705L18.125 23.6836L6.465 35.34C6.05112 35.7538 5.48978 35.9864 4.90446 35.9864C4.31914 35.9864 3.75779 35.7538 3.34391 35.34C2.93003 34.9261 2.69751 34.3647 2.69751 33.7794C2.69751 33.1941 2.93003 32.6328 3.34391 32.2189L16.5627 19.0001C16.7673 18.7947 17.0105 18.6318 17.2783 18.5206C17.5461 18.4094 17.8332 18.3521 18.1232 18.3521C18.4132 18.3521 18.7003 18.4094 18.9681 18.5206C19.2359 18.6318 19.4791 18.7947 19.6838 19.0001L25.4688 24.7852L37.7696 12.4844H31.3438C30.7595 12.4844 30.1991 12.2523 29.7859 11.8391C29.3728 11.4259 29.1407 10.8656 29.1407 10.2813C29.1407 9.69695 29.3728 9.13657 29.7859 8.72341C30.1991 8.31024 30.7595 8.07813 31.3438 8.07813H43.0938C43.6781 8.07812 44.2385 8.31024 44.6516 8.72341C45.0648 9.13657 45.2969 9.69695 45.2969 10.2813Z" fill="white"/>
</svg>
