<svg width="579" height="433" viewBox="0 0 579 433" fill="none" xmlns="http://www.w3.org/2000/svg">
<path opacity="0.34" d="M506.625 106.249L578.134 230H435.116L506.625 106.249ZM505.759 105.75L434.25 229.501L362.741 105.75H505.759ZM505.759 104.75H362.741L434.25 -19.0006L505.759 104.75ZM217.991 104.75L289.5 -19.0006L361.009 104.75H289.5H217.991ZM216.548 105.25L216.259 105.75L144.317 230.25L144.173 230.5L144.317 230.75L216.692 356L216.836 356.25H217.125L289.5 356.25L361.009 356.25L289.5 480.001L289.446 479.907H289.157H72.875V355.75V355.616L72.8079 355.5L0.577478 230.5L72.8079 105.5L72.875 105.384V105.25V-19.5H144.461L216.548 105.25ZM290.366 480.5L361.875 356.749L433.384 480.5H290.366ZM434.25 480.001L362.741 356.25H505.759L434.25 480.001ZM505.759 355.25H362.741L434.25 231.499L505.759 355.25ZM506.625 354.751L435.116 231H578.134L506.625 354.751ZM217.125 104.251L145.616 -19.5H288.634L217.125 104.251ZM433.384 -19.5L361.875 104.251L290.366 -19.5H433.384Z" stroke="white"/>
</svg>
